<svg width="893" height="541" viewBox="0 0 893 541" fill="none" xmlns="http://www.w3.org/2000/svg">
<g id="undraw_season_change_f99v 1" clip-path="url(#clip0)">
<path id="Vector" d="M73.8961 117.33C99.3012 117.33 119.896 96.7347 119.896 71.3296C119.896 45.9245 99.3012 25.3296 73.8961 25.3296C48.4911 25.3296 27.8961 45.9245 27.8961 71.3296C27.8961 96.7347 48.4911 117.33 73.8961 117.33Z" fill="#DF4996"/>
<path id="Vector_2" d="M113 297.219C175.408 297.219 226 246.628 226 184.219C226 121.811 175.408 71.2194 113 71.2194C50.5918 71.2194 0 121.811 0 184.219C0 246.628 50.5918 297.219 113 297.219Z" fill="#6F65FD"/>
<path id="Vector_3" d="M123.892 524.581H100.747L111.298 167.201L123.892 524.581Z" fill="#3F3D56"/>
<path id="Vector_4" d="M113.34 234.933L138.187 200.557L113 243.442L110.277 238.677L113.34 234.933Z" fill="#3F3D56"/>
<path id="Vector_5" d="M110.617 269.65L85.771 235.274L110.958 278.159L113.681 273.394L110.617 269.65Z" fill="#3F3D56"/>
<path id="Vector_6" d="M856.614 162.178C863.241 162.178 868.614 156.805 868.614 150.178C868.614 143.551 863.241 138.178 856.614 138.178C849.986 138.178 844.614 143.551 844.614 150.178C844.614 156.805 849.986 162.178 856.614 162.178Z" fill="#E6E6E6"/>
<path id="Vector_7" d="M856.614 286.178C863.241 286.178 868.614 280.805 868.614 274.178C868.614 267.551 863.241 262.178 856.614 262.178C849.986 262.178 844.614 267.551 844.614 274.178C844.614 280.805 849.986 286.178 856.614 286.178Z" fill="#E6E6E6"/>
<path id="Vector_8" d="M867.614 231.178C870.375 231.178 872.614 228.939 872.614 226.178C872.614 223.417 870.375 221.178 867.614 221.178C864.852 221.178 862.614 223.417 862.614 226.178C862.614 228.939 864.852 231.178 867.614 231.178Z" fill="#E6E6E6"/>
<path id="Vector_9" d="M835.614 111.178C838.375 111.178 840.614 108.939 840.614 106.178C840.614 103.417 838.375 101.178 835.614 101.178C832.852 101.178 830.614 103.417 830.614 106.178C830.614 108.939 832.852 111.178 835.614 111.178Z" fill="#E6E6E6"/>
<path id="Vector_10" d="M887.614 323.178C890.375 323.178 892.614 320.939 892.614 318.178C892.614 315.417 890.375 313.178 887.614 313.178C884.852 313.178 882.614 315.417 882.614 318.178C882.614 320.939 884.852 323.178 887.614 323.178Z" fill="#E6E6E6"/>
<g id="clock">
<path id="Vector_11" d="M459.056 524.897C575.314 524.897 669.559 430.651 669.559 314.393C669.559 198.135 575.314 103.89 459.056 103.89C342.798 103.89 248.552 198.135 248.552 314.393C248.552 430.651 342.798 524.897 459.056 524.897Z" fill="#3F3D56"/>
<path id="Vector_12" d="M459.056 507.471C565.69 507.471 652.133 421.027 652.133 314.393C652.133 207.759 565.69 121.315 459.056 121.315C352.422 121.315 265.978 207.759 265.978 314.393C265.978 421.027 352.422 507.471 459.056 507.471Z" fill="white"/>
<path id="Vector_13" d="M458.359 340.88C472.602 340.88 484.149 329.334 484.149 315.09C484.149 300.847 472.602 289.3 458.359 289.3C444.115 289.3 432.568 300.847 432.568 315.09C432.568 329.334 444.115 340.88 458.359 340.88Z" fill="#3F3D56"/>
<path id="Vector_14" d="M463.935 131.074H452.782V151.985H463.935V131.074Z" fill="#3F3D56"/>
<path id="Vector_15" d="M463.935 478.196H452.782V499.107H463.935V478.196Z" fill="#3F3D56"/>
<path id="Vector_16" d="M295.253 320.667V309.514H274.342V320.667H295.253Z" fill="#3F3D56"/>
<path id="Vector_17" d="M642.375 320.667V309.514H621.464V320.667H642.375Z" fill="#3F3D56"/>
<path id="Vector_18" d="M450.924 326.286L460.455 304.493L579.88 370.635L450.924 326.286Z" fill="#3F3D56"/>
<path id="Vector_19" d="M486.24 53.0063H431.871V115.739H486.24V53.0063Z" fill="#3F3D56"/>
<path id="Vector_20" d="M459.056 70.4321C493.702 70.4321 521.788 62.6304 521.788 53.0064C521.788 43.3824 493.702 35.5806 459.056 35.5806C424.409 35.5806 396.323 43.3824 396.323 53.0064C396.323 62.6304 424.409 70.4321 459.056 70.4321Z" fill="#3F3D56"/>
<path id="Vector_21" d="M888.12 42.1512C887.522 31.5801 883.189 21.5649 875.894 13.8912C868.598 6.21752 858.815 1.38418 848.288 0.25292C837.76 -0.878337 827.173 1.76603 818.414 7.71454C809.655 13.6631 803.293 22.529 800.463 32.7318C799.922 32.7124 799.381 32.6906 798.835 32.6906C789.183 32.6924 779.791 35.8194 772.063 41.6037C764.336 47.388 758.69 55.5188 755.969 64.7795C749.573 61.9692 742.425 61.3595 735.645 63.0459C728.866 64.7322 722.837 68.6195 718.503 74.0988H857.865C861.931 74.1103 865.957 73.3012 869.703 71.7201C873.448 70.139 876.837 67.8184 879.664 64.8971C882.492 61.9758 884.701 58.5139 886.159 54.7188C887.618 50.9236 888.295 46.8733 888.151 42.8101C888.142 42.5908 888.132 42.3712 888.12 42.1512Z" fill="#E6E6E6"/>
<path id="Vector_22" d="M771.614 136.178C778.241 136.178 783.614 130.805 783.614 124.178C783.614 117.551 778.241 112.178 771.614 112.178C764.986 112.178 759.614 117.551 759.614 124.178C759.614 130.805 764.986 136.178 771.614 136.178Z" fill="#E6E6E6"/>
<path id="Vector_23" d="M807.847 105.877C813.365 105.877 817.839 101.404 817.839 95.8857C817.839 90.3673 813.365 85.8939 807.847 85.8939C802.329 85.8939 797.855 90.3673 797.855 95.8857C797.855 101.404 802.329 105.877 807.847 105.877Z" fill="#E6E6E6"/>
<path id="Vector_24" d="M765.614 217.178C772.241 217.178 777.614 211.805 777.614 205.178C777.614 198.551 772.241 193.178 765.614 193.178C758.986 193.178 753.614 198.551 753.614 205.178C753.614 211.805 758.986 217.178 765.614 217.178Z" fill="#E6E6E6"/>
<path id="Vector_25" d="M780.614 326.178C783.375 326.178 785.614 323.939 785.614 321.178C785.614 318.417 783.375 316.178 780.614 316.178C777.852 316.178 775.614 318.417 775.614 321.178C775.614 323.939 777.852 326.178 780.614 326.178Z" fill="#E6E6E6"/>
<path id="Vector_26" d="M786.614 172.178C789.375 172.178 791.614 169.939 791.614 167.178C791.614 164.417 789.375 162.178 786.614 162.178C783.852 162.178 781.614 164.417 781.614 167.178C781.614 169.939 783.852 172.178 786.614 172.178Z" fill="#E6E6E6"/>
</g>
</g>
<defs>
<clipPath id="clip0">
<rect width="892.614" height="540.802" fill="white"/>
</clipPath>
</defs>
</svg>
