<svg width="179" height="216" viewBox="0 0 179 216" fill="none" xmlns="http://www.w3.org/2000/svg">
<g id="Capa 2">
<g id="Capa 1">
<path id="Vector" d="M110.86 21.14C103.247 31.3816 97.5612 42.9229 94.08 55.2C92.63 55.08 91.17 55.01 89.69 55C76.3939 54.9382 63.5644 59.8969 53.7662 68.8849C43.968 77.873 37.9231 90.228 36.84 103.48L37.15 35.54C40.1292 33.3779 43.2384 31.4009 46.46 29.62C66.1091 18.834 89.0885 15.8081 110.86 21.14V21.14Z" fill="#1A1A1A"/>
<path id="Vector_2" d="M96.18 160.14C108.591 158.54 120.029 152.583 128.455 143.331C136.88 134.08 141.745 122.136 142.18 109.63V121.89L141.96 180.16C138.241 182.858 134.319 185.265 130.23 187.36C120.774 192.217 110.52 195.33 99.96 196.55C100.917 184.285 99.6358 171.947 96.18 160.14V160.14Z" fill="#1A1A1A"/>
<path id="Vector_3" d="M0.209996 107.94C0.209996 107.25 0.209996 106.56 0.209996 105.88V110.19C0.209996 109.44 0.199996 108.69 0.209996 107.94Z" fill="white"/>
<path id="Vector_4" d="M0.230003 107.45L0.699996 5.85999C0.705032 4.92626 0.939384 4.00807 1.38244 3.18613C1.82549 2.3642 2.46368 1.66369 3.24091 1.14619C4.01813 0.628702 4.91059 0.310075 5.83981 0.218322C6.76904 0.126569 7.70657 0.264503 8.57 0.619994L30.08 9.47999C32.1993 10.3541 34.0103 11.8396 35.2819 13.747C36.5536 15.6545 37.2283 17.8975 37.22 20.19L36.84 103.48C36.73 104.82 36.67 106.17 36.67 107.54C36.67 108.91 36.67 110.26 36.8 111.6C37.7467 124.799 43.6172 137.161 53.2482 146.237C62.8791 155.312 75.5678 160.438 88.8 160.6H89.16C91.5003 160.611 93.8387 160.467 96.16 160.17C96.21 160.32 96.25 160.46 96.29 160.6C99.4029 171.387 100.684 182.619 100.08 193.83V193.83C100.08 194.75 99.98 195.67 99.92 196.57C97.52 196.85 95.09 197.033 92.63 197.12C91.46 197.12 90.28 197.18 89.1 197.12C77.3724 197.073 65.769 194.715 54.9534 190.18C44.1378 185.645 34.3221 179.023 26.0675 170.693C17.8129 162.362 11.2813 152.486 6.84622 141.629C2.41111 130.772 0.159453 119.148 0.22 107.42L0.230003 107.45Z" fill="#1A1A1A"/>
<path id="Vector_5" d="M178.4 210.14C178.395 211.074 178.161 211.992 177.718 212.814C177.275 213.636 176.636 214.336 175.859 214.854C175.082 215.371 174.189 215.69 173.26 215.782C172.331 215.873 171.393 215.735 170.53 215.38L149 206.53C146.88 205.66 145.068 204.177 143.796 202.271C142.524 200.364 141.85 198.122 141.86 195.83L141.92 180.16L142.19 109.63C142.19 109.1 142.19 108.56 142.19 108.03C142.19 107.5 142.19 106.91 142.19 106.35C141.835 93.4066 136.736 81.045 127.862 71.616C118.988 62.1869 106.958 56.3481 94.06 55.21V55.12C94.06 55.12 94.06 55.12 94.06 55.06C97.5444 42.8377 103.216 31.3485 110.8 21.15C112.73 21.62 114.64 22.15 116.51 22.75C117.09 22.94 117.65 23.12 118.22 23.32C135.589 29.2074 150.723 40.3027 161.562 55.0965C172.402 69.8902 178.421 87.6641 178.8 106V106V110.31L178.4 210.14Z" fill="#333333"/>
<path id="Vector_6" opacity="0.29" d="M46.46 29.62C39.58 43.62 37.46 66.42 36.93 82.4L37.15 35.54C40.1292 33.3779 43.2384 31.4009 46.46 29.62Z" fill="url(#paint0_radial)"/>
<path id="Vector_7" opacity="0.1" d="M130.51 186.92C139.93 165.32 141.81 136.4 142.15 123.13L141.93 179.9C138.311 182.533 134.493 184.88 130.51 186.92Z" fill="url(#paint1_linear)"/>
</g>
</g>
<defs>
<radialGradient id="paint0_radial" cx="0" cy="0" r="1" gradientUnits="userSpaceOnUse" gradientTransform="translate(25.1695 95.4511) rotate(0.26) scale(93.0201 93.02)">
<stop stop-color="white"/>
<stop offset="0.04" stop-color="#EDEDED"/>
<stop offset="0.17" stop-color="#BCBCBC"/>
<stop offset="0.3" stop-color="#929292"/>
<stop offset="0.44" stop-color="#707070"/>
<stop offset="0.57" stop-color="#555555"/>
<stop offset="0.71" stop-color="#424242"/>
<stop offset="0.85" stop-color="#373737"/>
<stop offset="1" stop-color="#333333"/>
</radialGradient>
<linearGradient id="paint1_linear" x1="145.87" y1="108.42" x2="132.19" y2="216.53" gradientUnits="userSpaceOnUse">
<stop stop-color="#A4D3FA"/>
<stop offset="0.04" stop-color="#9ECBF1"/>
<stop offset="0.1" stop-color="#8DB6D7"/>
<stop offset="0.18" stop-color="#7292AD"/>
<stop offset="0.27" stop-color="#4C6274"/>
<stop offset="0.37" stop-color="#1C242B"/>
<stop offset="0.43"/>
<stop offset="0.99"/>
</linearGradient>
</defs>
</svg>
